<svg width="66" height="66" viewBox="0 0 66 66" fill="none" xmlns="http://www.w3.org/2000/svg">
<rect x="1" y="1" width="64" height="64" rx="8" fill="white"/>
<path d="M35 23H27C26.4696 23 25.9609 23.2107 25.5858 23.5858C25.2107 23.9609 25 24.4696 25 25V41C25 41.5304 25.2107 42.0391 25.5858 42.4142C25.9609 42.7893 26.4696 43 27 43H39C39.5304 43 40.0391 42.7893 40.4142 42.4142C40.7893 42.0391 41 41.5304 41 41V29L35 23Z" stroke="#87909F" stroke-width="2" stroke-linecap="round" stroke-linejoin="round"/>
<path d="M35 23V29H41" stroke="#87909F" stroke-width="2" stroke-linecap="round" stroke-linejoin="round"/>
<path d="M33 39V33" stroke="#87909F" stroke-width="2" stroke-linecap="round" stroke-linejoin="round"/>
<path d="M30 36H36" stroke="#87909F" stroke-width="2" stroke-linecap="round" stroke-linejoin="round"/>
<rect x="1" y="1" width="64" height="64" rx="8" stroke="#D7DADF" stroke-width="2" stroke-linecap="round" stroke-dasharray="8 4"/>
</svg>
