<svg width="30" height="30" viewBox="0 0 30 30" xmlns="http://www.w3.org/2000/svg" xmlns:usvg="https://github.com/RazrFalcon/resvg" usvg:version="0.13.1">
    <defs/>
    <path fill="#9eaebe" stroke="none" d="M 13.5 27 C 6.06 27 0 20.94 0 13.5 C 0 6.06 6.06 0 13.5 0 C 20.94 0 27 6.06 27 13.5 C 27 20.94 20.94 27 13.5 27 Z M 13.5 3 C 7.71 3 3 7.71 3 13.5 C 3 19.29 7.71 24 13.5 24 C 19.29 24 24 19.29 24 13.5 C 24 7.71 19.29 3 13.5 3 Z"/>
    <path fill="#9eaebe" stroke="none" d="M 28.5 30 C 28.12 30 27.73 29.85 27.44 29.56 L 20.92 23.04 C 20.33 22.45 20.33 21.5 20.92 20.92 C 21.51 20.34 22.46 20.33 23.04 20.92 L 29.56 27.44 C 30.15 28.03 30.15 28.98 29.56 29.56 C 29.27 29.85 28.88 30 28.5 30 Z"/>
</svg>
