<svg width="20" height="22" viewBox="0 0 20 22" fill="none" xmlns="http://www.w3.org/2000/svg">
<path d="M15.5 7.33337C17.0188 7.33337 18.25 6.10216 18.25 4.58337C18.25 3.06459 17.0188 1.83337 15.5 1.83337C13.9812 1.83337 12.75 3.06459 12.75 4.58337C12.75 6.10216 13.9812 7.33337 15.5 7.33337Z" stroke="#BBC4C9" stroke-width="2" stroke-linecap="round" stroke-linejoin="round"/>
<path d="M4.5 13.75C6.01878 13.75 7.25 12.5188 7.25 11C7.25 9.48122 6.01878 8.25 4.5 8.25C2.98122 8.25 1.75 9.48122 1.75 11C1.75 12.5188 2.98122 13.75 4.5 13.75Z" stroke="#BBC4C9" stroke-width="2" stroke-linecap="round" stroke-linejoin="round"/>
<path d="M15.5 20.1666C17.0188 20.1666 18.25 18.9354 18.25 17.4166C18.25 15.8978 17.0188 14.6666 15.5 14.6666C13.9812 14.6666 12.75 15.8978 12.75 17.4166C12.75 18.9354 13.9812 20.1666 15.5 20.1666Z" stroke="#BBC4C9" stroke-width="2" stroke-linecap="round" stroke-linejoin="round"/>
<path d="M6.87402 12.3842L13.1349 16.0325" stroke="#BBC4C9" stroke-width="2" stroke-linecap="round" stroke-linejoin="round"/>
<path d="M13.1257 5.96753L6.87402 9.61586" stroke="#BBC4C9" stroke-width="2" stroke-linecap="round" stroke-linejoin="round"/>
</svg>
